# xmcd
#
# Track frame offsets:
#	187
#	17462
#	33170
#	45945
#	64640
#	77590
#	94960
#	115167
#	130392
#	144050
#	160897
#	177365
#	192262
#	206705
#	225022
#	238547
#	253142
#	264635
#	278785
#	296985
#
# Disc length: 4180
#
# Revision: 3
# Processed by: cddbd v1.5.1PL0 Copyright (c) Steve Scherf et al.
# Submitted via: DiscPlay 4.0.4
# Normalized: r1:TSWAP
#
DISCID=0e105214
DTITLE=Various Artist - Great Original Country Hits Of The 80's
DYEAR=1900
DGENRE=
TTITLE0=Baillie and The Boys - (Wish I Had A) Heart Of Stone
TTITLE1=The Bellamy Brothers - Kids Of The Baby Boom
TTITLE2=The Whites - It Should Have Been Easy
TTITLE3=Alabama - Roll On (Eighteen Wheeler)
TTITLE4=Johhny Cash and Hank Williams Jr. - That Ole Wheel
TTITLE5=Merle Haggard - It's All In The Game
TTITLE6=Lynn Anderson - Under The Boardwalk
TTITLE7=Willie Nelson and Waylon Jennings - (Sittin' On) The Dockl Of The Bay
TTITLE8=Buck Ownes and RIngo Starr - Act Naturally
TTITLE9=Juice Newton - Hurt
TTITLE10=Don WIlliams - That's The Thing About Love
TTITLE11=The Statler Brothers - My Only Love
TTITLE12=Barbara Mandrell - No One Mends A Broken Heart Like You
TTITLE13=The Oak Ridge Boys - Make My Life With You
TTITLE14=Mel McDaniel - Baby's Got Her Blue Jeans On
TTITLE15=Dolly Parton - Don't Call It Love
TTITLE16=Patty Loveless - Timber, I'm Falling In Love
TTITLE17=Anne Murray - A Little Good News
TTITLE18=Tanya Tucker - I'll Come Back As Another Woman
TTITLE19=Kathy Mattea with Don Williams - Love At The Five And Dime
EXTD=
EXTT0=
EXTT1=
EXTT2=
EXTT3=
EXTT4=
EXTT5=
EXTT6=
EXTT7=
EXTT8=
EXTT9=
EXTT10=
EXTT11=
EXTT12=
EXTT13=
EXTT14=
EXTT15=
EXTT16=
EXTT17=
EXTT18=
EXTT19=
PLAYORDER=
